<?xml version="1.0" standalone="no"?>
<!DOCTYPE svg PUBLIC "-//W3C//DTD SVG 20010904//EN"
 "http://www.w3.org/TR/2001/REC-SVG-20010904/DTD/svg10.dtd">
<svg version="1.0" xmlns="http://www.w3.org/2000/svg"
 width="1024.000000pt" height="1024.000000pt" viewBox="0 0 1024.000000 1024.000000"
 preserveAspectRatio="xMidYMid meet">
<metadata>
Created by potrace 1.11, written by Peter Selinger 2001-2013
</metadata>
<g transform="translate(0.000000,1024.000000) scale(0.100000,-0.100000)"
fill="#000000" stroke="none">
<path d="M6140 9879 c-116 -41 -262 -106 -445 -199 -204 -104 -257 -132 -265
-140 -3 -3 -39 -25 -80 -50 -148 -86 -384 -250 -540 -374 -41 -33 -77 -63 -80
-66 -3 -3 -36 -32 -75 -65 -164 -140 -347 -324 -485 -485 -35 -41 -66 -77 -70
-80 -14 -11 -210 -280 -262 -360 -83 -129 -90 -140 -131 -215 -180 -333 -305
-684 -387 -1094 -31 -155 -34 -175 -45 -261 -4 -30 -9 -62 -10 -71 -2 -9 -6
-52 -10 -95 -4 -43 -8 -90 -10 -103 -23 -145 -23 -706 0 -956 6 -63 36 -303
41 -330 2 -11 7 -36 11 -55 l6 -35 -39 29 c-281 209 -506 474 -649 761 -80
161 -146 356 -161 478 -3 23 -7 48 -10 56 -22 67 -22 421 1 531 16 81 26 151
23 162 -8 22 -134 -169 -230 -347 -177 -326 -342 -711 -451 -1050 -36 -111
-103 -349 -111 -395 -2 -14 -12 -58 -20 -97 -9 -40 -18 -87 -21 -105 -3 -18
-8 -40 -10 -48 -2 -8 -7 -37 -10 -65 -4 -27 -8 -61 -10 -75 -4 -30 -14 -122
-21 -205 -6 -76 -7 -427 0 -480 3 -22 8 -75 11 -118 4 -43 8 -87 10 -97 2 -10
6 -44 10 -74 21 -196 101 -529 187 -781 61 -179 202 -491 295 -655 86 -150
183 -298 293 -445 46 -60 86 -112 89 -115 3 -3 30 -34 60 -70 30 -36 62 -72
70 -81 9 -9 32 -34 52 -55 167 -181 432 -405 634 -538 50 -32 101 -66 115 -76
94 -64 463 -262 580 -311 133 -55 346 -123 459 -145 12 -3 51 -11 85 -19 33
-8 77 -17 96 -20 19 -3 60 -10 90 -15 30 -5 75 -12 100 -15 25 -3 61 -8 80
-10 207 -26 425 -22 624 10 51 8 158 24 237 35 79 11 155 22 169 25 13 3 40 7
60 10 47 7 78 13 98 19 9 3 33 8 52 11 84 15 288 78 425 133 68 27 207 90 225
102 8 5 30 16 48 25 135 60 446 268 647 432 366 298 706 717 906 1118 93 185
191 454 213 580 2 17 12 66 21 110 23 117 30 224 30 470 0 196 -6 315 -20 410
-2 17 -6 50 -9 75 -3 25 -8 61 -11 80 -3 19 -7 53 -10 75 -2 22 -6 49 -8 60
-9 41 -17 92 -23 140 -3 28 -8 53 -10 56 -2 3 -6 21 -9 40 -3 19 -19 108 -35
199 -16 91 -32 182 -36 204 -3 21 -7 48 -10 60 -7 36 -35 229 -39 266 -2 19
-7 69 -12 110 -10 96 -10 487 0 605 8 97 15 170 22 225 3 19 7 55 10 80 3 25
7 56 10 70 3 14 8 45 11 70 3 25 7 52 9 60 3 8 7 33 11 55 13 88 76 314 108
387 19 43 32 78 30 78 -2 0 -46 -26 -97 -57 -261 -160 -517 -400 -698 -653
-30 -42 -121 -186 -203 -320 -82 -135 -156 -256 -165 -270 -8 -14 -21 -34 -27
-45 -6 -11 -55 -92 -109 -180 -54 -88 -130 -213 -168 -277 -39 -65 -72 -116
-74 -115 -2 2 4 26 12 53 8 27 21 83 30 124 44 223 57 358 59 590 1 256 -8
371 -44 576 -33 185 -107 461 -151 559 -4 11 -22 55 -38 97 -40 100 -121 267
-194 398 -33 58 -82 148 -109 200 -28 52 -54 100 -58 105 -15 19 -209 413
-230 466 -12 29 -32 76 -44 103 -85 184 -151 430 -171 636 -3 30 -7 64 -10 75
-23 112 -23 536 0 710 13 97 22 145 41 219 8 32 13 60 12 62 -2 1 -28 -6 -58
-17z"/>
</g>
</svg>
